<?xml version="1.0" encoding="UTF-8" standalone="no"?>
<!DOCTYPE svg PUBLIC "-//W3C//DTD SVG 1.1//EN" "http://www.w3.org/Graphics/SVG/1.1/DTD/svg11.dtd">
<svg width="100%" height="100%" viewBox="0 0 200 29" version="1.1" xmlns="http://www.w3.org/2000/svg" xmlns:xlink="http://www.w3.org/1999/xlink" xml:space="preserve" xmlns:serif="http://www.serif.com/" style="fill-rule:evenodd;clip-rule:evenodd;">
    <g transform="matrix(0.177321,0,0,0.169568,-119.871,-110.381)">
        <text x="1276.38px" y="728.103px" style="font-family:'HelveticaNeue', 'Helvetica Neue';font-size:58.48px;fill:rgb(147,156,161);">R<tspan x="1320.83px 1360.95px 1407.56px 1454.17px 1492.12px 1534.4px 1576.68px 1623.29px 1680.43px 1722.71px 1754.23px " y="728.103px 728.103px 728.103px 728.103px 728.103px 728.103px 728.103px 728.103px 728.103px 728.103px 728.103px ">ECHTSANWALT</tspan></text>
        <text x="1276.38px" y="786.583px" style="font-family:'HelveticaNeue', 'Helvetica Neue';font-size:58.48px;fill:rgb(147,156,161);">M<tspan x="1331.71px 1371.83px 1417.38px 1436.91px 1473.82px 1511.77px 1560.6px " y="786.583px 786.583px 786.583px 786.583px 786.583px 786.583px 786.583px ">EDIATOR</tspan></text>
    </g>
    <g transform="matrix(0,0.706532,0.738837,0,106.447,14.6022)">
        <path d="M-12.369,-12.369L12.369,-12.369" style="fill:none;fill-rule:nonzero;stroke:rgb(165,165,165);stroke-width:2.5px;"/>
    </g>
    <g transform="matrix(0.177321,0,0,0.169568,-42.0927,-9.11864)">
        <text x="223.76px" y="188.854px" style="font-family:'HelveticaNeue-Light', 'Helvetica Neue';font-weight:300;font-size:189.185px;fill:rgb(147,156,161);">Kr<tspan x="402.54px 500.727px " y="188.854px 188.854px ">ey</tspan>er</text>
    </g>
</svg>
